<svg width="150" height="150" viewBox="0 0 150 150" fill="none" xmlns="http://www.w3.org/2000/svg">
<path d="M131.25 72.5H18.75C17.0924 72.5 15.5027 73.1585 14.3306 74.3306C13.1585 75.5027 12.5 77.0924 12.5 78.75C12.5003 89.7208 15.3883 100.498 20.8738 109.999C26.3593 119.5 34.249 127.39 43.75 132.875V141.25C43.75 142.908 44.4085 144.497 45.5806 145.669C46.7527 146.842 48.3424 147.5 50 147.5H100C101.658 147.5 103.247 146.842 104.419 145.669C105.592 144.497 106.25 142.908 106.25 141.25V132.875C115.751 127.39 123.641 119.5 129.126 109.999C134.612 100.498 137.5 89.7208 137.5 78.75C137.5 77.0924 136.842 75.5027 135.669 74.3306C134.497 73.1585 132.908 72.5 131.25 72.5ZM97.1875 123.5C96.1473 124.024 95.2742 124.829 94.6668 125.822C94.0594 126.816 93.7419 127.96 93.75 129.125V135H56.25V129.125C56.2581 127.96 55.9406 126.816 55.3332 125.822C54.7258 124.829 53.8527 124.024 52.8125 123.5C45.4182 119.844 39.0433 114.415 34.256 107.698C29.4687 100.98 26.4177 93.1826 25.375 85H124.625C123.582 93.1826 120.531 100.98 115.744 107.698C110.957 114.415 104.582 119.844 97.1875 123.5ZM56.25 66.25V59.5625C56.2408 52.2102 53.3718 45.1498 48.25 39.875C46.8009 38.4108 45.657 36.6734 44.8845 34.7637C44.1121 32.854 43.7264 30.8099 43.75 28.75V22.5H31.25V28.75C31.2267 36.1455 34.098 43.2567 39.25 48.5625C42.1462 51.4895 43.7643 55.4449 43.75 59.5625V66.25H56.25ZM81.25 66.25V59.5625C81.2408 52.2102 78.3718 45.1498 73.25 39.875C71.8009 38.4108 70.657 36.6734 69.8845 34.7637C69.1121 32.854 68.7264 30.8099 68.75 28.75V22.5H56.25V28.75C56.2592 36.1023 59.1282 43.1627 64.25 48.4375C65.6991 49.9017 66.843 51.6391 67.6155 53.5488C68.3879 55.4585 68.7736 57.5026 68.75 59.5625V66.25H81.25ZM106.25 66.25V59.5625C106.241 52.2102 103.372 45.1498 98.25 39.875C96.8009 38.4108 95.657 36.6734 94.8845 34.7637C94.1121 32.854 93.7264 30.8099 93.75 28.75V22.5H81.25V28.75C81.2592 36.1023 84.1282 43.1627 89.25 48.4375C90.6991 49.9017 91.843 51.6391 92.6155 53.5488C93.3879 55.4585 93.7736 57.5026 93.75 59.5625V66.25H106.25Z" fill="black"/>
</svg>
