<svg width="110" height="93" viewBox="0 0 110 93" fill="none" xmlns="http://www.w3.org/2000/svg">
<path d="M55 58.125C46.5667 58.125 45.8333 54.7925 45.8333 54.25H36.6667C36.6667 57.815 39.6917 64.1313 50.4167 65.565V69.75H59.5833V65.565C68.75 64.2475 73.3333 59.2487 73.3333 54.25C73.3333 49.91 70.95 42.625 55 42.625C45.8333 42.625 45.8333 40.1838 45.8333 38.75C45.8333 37.3162 49.0417 34.875 55 34.875C60.9583 34.875 61.3708 37.355 61.4167 38.75H70.5833C70.5214 36.1102 69.3984 33.5668 67.3991 31.5385C65.3998 29.5101 62.6434 28.1175 59.5833 27.59V23.25H50.4167V27.4738C41.25 28.7525 36.6667 33.7513 36.6667 38.75C36.6667 43.09 39.05 50.375 55 50.375C64.1667 50.375 64.1667 53.01 64.1667 54.25C64.1667 55.49 61.325 58.125 55 58.125Z" fill="white"/>
<path d="M22.9167 7.75H9.16667V15.5H18.3333V81.375C18.3333 82.4027 18.8162 83.3883 19.6758 84.115C20.5353 84.8417 21.7011 85.25 22.9167 85.25H87.0833C88.2989 85.25 89.4647 84.8417 90.3242 84.115C91.1838 83.3883 91.6667 82.4027 91.6667 81.375V15.5H100.833V7.75H22.9167ZM82.5 77.5H27.5V15.5H82.5V77.5Z" fill="white"/>
</svg>
