<svg width="80" height="80" viewBox="0 0 80 80" fill="none" xmlns="http://www.w3.org/2000/svg">
<path fill-rule="evenodd" clip-rule="evenodd" d="M61.3433 18.7766C58.5712 15.9863 55.2729 13.7737 51.6395 12.2671C48.0062 10.7606 44.11 9.98998 40.1767 9.99997C23.6833 9.99997 10.2567 23.4233 10.25 39.9233C10.25 45.1966 11.6267 50.3433 14.2433 54.8833L10 70.3866L25.8633 66.2233C30.2513 68.612 35.1673 69.8644 40.1633 69.8666H40.1767C56.6667 69.8666 70.0933 56.4433 70.1 39.9433C70.1113 36.0116 69.3433 32.1166 67.8403 28.4835C66.3372 24.8504 64.1291 21.5512 61.3433 18.7766M40.1767 64.8166H40.1667C35.7117 64.8171 31.3388 63.6185 27.5067 61.3466L26.6 60.8066L17.1867 63.2766L19.6967 54.1L19.1067 53.16C16.616 49.1947 15.2974 44.6059 15.3033 39.9233C15.31 26.21 26.4667 15.0533 40.1867 15.0533C43.4542 15.046 46.6907 15.6869 49.7088 16.9388C52.727 18.1907 55.4669 20.0288 57.77 22.3466C60.0854 24.6534 61.9206 27.3963 63.1696 30.4166C64.4186 33.437 65.0566 36.6749 65.0467 39.9433C65.04 53.6566 53.8833 64.8166 40.1767 64.8166ZM53.82 46.1866C53.07 45.81 49.3967 44.0033 48.71 43.7533C48.0267 43.5033 47.53 43.38 47.03 44.1266C46.53 44.8733 45.0967 46.5566 44.66 47.0566C44.2233 47.5566 43.7867 47.6166 43.04 47.2433C42.2933 46.87 39.8833 46.08 37.0267 43.5333C34.8033 41.55 33.3033 39.1033 32.8667 38.3533C32.43 37.6033 32.82 37.2 33.1967 36.8266C33.5333 36.4933 33.9433 35.9533 34.3167 35.5166C34.69 35.08 34.8133 34.77 35.0633 34.27C35.3133 33.77 35.19 33.3333 35 32.96C34.8133 32.5833 33.3167 28.9033 32.6933 27.4066C32.09 25.9566 31.4733 26.15 31.0133 26.13C30.5369 26.1105 30.0601 26.1016 29.5833 26.1033C29.2042 26.113 28.8311 26.2009 28.4875 26.3615C28.1439 26.5221 27.8372 26.7519 27.5867 27.0366C26.9 27.7866 24.97 29.5933 24.97 33.2733C24.97 36.9533 27.65 40.51 28.0233 41.01C28.3967 41.51 33.2967 49.06 40.7967 52.3C42.5833 53.07 43.9767 53.53 45.06 53.8766C46.85 54.4466 48.48 54.3633 49.77 54.1733C51.2067 53.96 54.1933 52.3666 54.8167 50.62C55.44 48.8733 55.44 47.3766 55.2533 47.0633C55.0667 46.75 54.5633 46.56 53.82 46.1866" fill="#1BF424"/>
</svg>
