<svg width="157" height="150" viewBox="0 0 157 150" fill="none" xmlns="http://www.w3.org/2000/svg">
<path d="M137.375 72.5H19.625C17.8901 72.5 16.2262 73.1585 14.9994 74.3306C13.7726 75.5027 13.0833 77.0924 13.0833 78.75C13.0836 89.7208 16.1064 100.498 21.8479 109.999C27.5894 119.5 35.8473 127.39 45.7917 132.875V141.25C45.7917 142.908 46.4809 144.497 47.7077 145.669C48.9345 146.842 50.5984 147.5 52.3333 147.5H104.667C106.402 147.5 108.066 146.842 109.292 145.669C110.519 144.497 111.208 142.908 111.208 141.25V132.875C121.153 127.39 129.411 119.5 135.152 109.999C140.894 100.498 143.916 89.7208 143.917 78.75C143.917 77.0924 143.227 75.5027 142.001 74.3306C140.774 73.1585 139.11 72.5 137.375 72.5ZM101.723 123.5C100.634 124.024 99.7204 124.829 99.0846 125.822C98.4489 126.816 98.1165 127.96 98.125 129.125V135H58.875V129.125C58.8835 127.96 58.5511 126.816 57.9154 125.822C57.2797 124.829 56.3659 124.024 55.2771 123.5C47.5377 119.844 40.8653 114.415 35.8546 107.698C30.8439 100.98 27.6506 93.1826 26.5592 85H130.441C129.349 93.1826 126.156 100.98 121.145 107.698C116.135 114.415 109.462 119.844 101.723 123.5ZM58.875 66.25V59.5625C58.8653 52.2102 55.8625 45.1498 50.5017 39.875C48.985 38.4108 47.7877 36.6734 46.9792 34.7637C46.1706 32.854 45.767 30.8099 45.7917 28.75V22.5H32.7083V28.75C32.6839 36.1455 35.6893 43.2567 41.0817 48.5625C44.113 51.4895 45.8066 55.4449 45.7917 59.5625V66.25H58.875ZM85.0417 66.25V59.5625C85.032 52.2102 82.0291 45.1498 76.6683 39.875C75.1517 38.4108 73.9543 36.6734 73.1458 34.7637C72.3373 32.854 71.9337 30.8099 71.9583 28.75V22.5H58.875V28.75C58.8847 36.1023 61.8875 43.1627 67.2483 48.4375C68.765 49.9017 69.9624 51.6391 70.7709 53.5488C71.5794 55.4585 71.983 57.5026 71.9583 59.5625V66.25H85.0417ZM111.208 66.25V59.5625C111.199 52.2102 108.196 45.1498 102.835 39.875C101.318 38.4108 100.121 36.6734 99.3125 34.7637C98.504 32.854 98.1003 30.8099 98.125 28.75V22.5H85.0417V28.75C85.0514 36.1023 88.0542 43.1627 93.415 48.4375C94.9317 49.9017 96.129 51.6391 96.9375 53.5488C97.7461 55.4585 98.1497 57.5026 98.125 59.5625V66.25H111.208Z" fill="#DADADA"/>
</svg>
